<svg width="149" height="20" viewBox="0 0 149 20" fill="none" xmlns="http://www.w3.org/2000/svg">
<path d="M0.85 19V0.999999H3.5V19H0.85ZM2.15 19V16.825H13.35V19H2.15ZM2.15 10.775V8.6H12.45V10.775H2.15ZM2.15 3.175V0.999999H13.125V3.175H2.15ZM22.2676 19.225C20.1009 19.225 18.3676 18.7083 17.0676 17.675C15.7676 16.6417 15.0092 15.1667 14.7926 13.25H17.3676C17.5176 14.5 18.0176 15.45 18.8676 16.1C19.7176 16.75 20.8676 17.075 22.3176 17.075C23.5342 17.075 24.4509 16.85 25.0676 16.4C25.7009 15.95 26.0176 15.3083 26.0176 14.475C26.0176 13.725 25.8092 13.1333 25.3926 12.7C24.9759 12.25 24.3176 11.8833 23.4176 11.6L20.2926 10.6C18.6926 10.0833 17.5176 9.43333 16.7676 8.65C16.0176 7.86667 15.6426 6.875 15.6426 5.675C15.6426 4.65833 15.8926 3.78333 16.3926 3.05C16.9092 2.31667 17.6259 1.75 18.5426 1.35C19.4759 0.933333 20.5592 0.725 21.7926 0.725C23.6926 0.725 25.2092 1.20833 26.3426 2.175C27.4926 3.125 28.1509 4.45 28.3176 6.15H25.7426C25.5426 5.01667 25.1092 4.19167 24.4426 3.675C23.7759 3.14167 22.8592 2.875 21.6926 2.875C20.5926 2.875 19.7342 3.09167 19.1176 3.525C18.5009 3.95833 18.1926 4.56667 18.1926 5.35C18.1926 5.98333 18.3926 6.51667 18.7926 6.95C19.2092 7.36667 19.8926 7.725 20.8426 8.025L24.1176 9.075C25.6342 9.55833 26.7509 10.2167 27.4676 11.05C28.2009 11.8833 28.5676 12.9333 28.5676 14.2C28.5676 15.8 28.0176 17.0417 26.9176 17.925C25.8176 18.7917 24.2676 19.225 22.2676 19.225ZM37.8438 19.225C35.6771 19.225 33.9438 18.7083 32.6438 17.675C31.3438 16.6417 30.5854 15.1667 30.3688 13.25H32.9438C33.0938 14.5 33.5938 15.45 34.4438 16.1C35.2938 16.75 36.4438 17.075 37.8938 17.075C39.1104 17.075 40.0271 16.85 40.6438 16.4C41.2771 15.95 41.5938 15.3083 41.5938 14.475C41.5938 13.725 41.3854 13.1333 40.9688 12.7C40.5521 12.25 39.8938 11.8833 38.9938 11.6L35.8688 10.6C34.2688 10.0833 33.0938 9.43333 32.3438 8.65C31.5938 7.86667 31.2188 6.875 31.2188 5.675C31.2188 4.65833 31.4688 3.78333 31.9688 3.05C32.4854 2.31667 33.2021 1.75 34.1188 1.35C35.0521 0.933333 36.1354 0.725 37.3688 0.725C39.2688 0.725 40.7854 1.20833 41.9188 2.175C43.0688 3.125 43.7271 4.45 43.8938 6.15H41.3188C41.1188 5.01667 40.6854 4.19167 40.0188 3.675C39.3521 3.14167 38.4354 2.875 37.2688 2.875C36.1688 2.875 35.3104 3.09167 34.6938 3.525C34.0771 3.95833 33.7688 4.56667 33.7688 5.35C33.7688 5.98333 33.9688 6.51667 34.3688 6.95C34.7854 7.36667 35.4688 7.725 36.4188 8.025L39.6938 9.075C41.2104 9.55833 42.3271 10.2167 43.0438 11.05C43.7771 11.8833 44.1438 12.9333 44.1438 14.2C44.1438 15.8 43.5938 17.0417 42.4938 17.925C41.3938 18.7917 39.8438 19.225 37.8438 19.225ZM46.8949 19V0.999999H49.5449V19H46.8949ZM48.1949 19V16.825H59.3949V19H48.1949ZM48.1949 10.775V8.6H58.4949V10.775H48.1949ZM48.1949 3.175V0.999999H59.1699V3.175H48.1949ZM62.7396 19V0.999999H65.8146L75.3646 16.4L74.7646 16.525V0.999999H77.3146V19H74.2396L64.6896 3.6L65.2896 3.475V19H62.7396ZM86.0508 19V3.175H79.9758V0.999999H94.7758V3.175H88.7008V19H86.0508ZM97.432 19V0.999999H100.082V19H97.432ZM102.73 19L109.505 0.999999H111.805L105.33 19H102.73ZM116.655 19L110.18 0.999999H112.605L119.405 19H116.655ZM106.155 11.825H115.805V14.025H106.155V11.825ZM122.066 19V0.999999H124.716V19H122.066ZM123.366 19V16.825H133.766V19H123.366ZM142.214 19.225C140.047 19.225 138.314 18.7083 137.014 17.675C135.714 16.6417 134.956 15.1667 134.739 13.25H137.314C137.464 14.5 137.964 15.45 138.814 16.1C139.664 16.75 140.814 17.075 142.264 17.075C143.481 17.075 144.397 16.85 145.014 16.4C145.647 15.95 145.964 15.3083 145.964 14.475C145.964 13.725 145.756 13.1333 145.339 12.7C144.922 12.25 144.264 11.8833 143.364 11.6L140.239 10.6C138.639 10.0833 137.464 9.43333 136.714 8.65C135.964 7.86667 135.589 6.875 135.589 5.675C135.589 4.65833 135.839 3.78333 136.339 3.05C136.856 2.31667 137.572 1.75 138.489 1.35C139.422 0.933333 140.506 0.725 141.739 0.725C143.639 0.725 145.156 1.20833 146.289 2.175C147.439 3.125 148.097 4.45 148.264 6.15H145.689C145.489 5.01667 145.056 4.19167 144.389 3.675C143.722 3.14167 142.806 2.875 141.639 2.875C140.539 2.875 139.681 3.09167 139.064 3.525C138.447 3.95833 138.139 4.56667 138.139 5.35C138.139 5.98333 138.339 6.51667 138.739 6.95C139.156 7.36667 139.839 7.725 140.789 8.025L144.064 9.075C145.581 9.55833 146.697 10.2167 147.414 11.05C148.147 11.8833 148.514 12.9333 148.514 14.2C148.514 15.8 147.964 17.0417 146.864 17.925C145.764 18.7917 144.214 19.225 142.214 19.225Z" fill="black"/>
</svg>
